<svg xmlns="http://www.w3.org/2000/svg" width="193.162" height="32.184"><path d="M13.92 0c-.855 0-1.03.15-1.307.457a5.506 5.506 0 00-.342-.01 3.95 3.95 0 00-2.216.579 1.429 1.429 0 00-.656 1.863s.249-.365 1.064-.365c.116 0 .241.013.376.024A1.906 1.906 0 0112.7 4.844c-.088 1.566-.677 3.314-3.083 3.334 0 0-.308 0-.64-.03a1.812 1.812 0 01-1.47-.827 1.467 1.467 0 00.974-1.49A2.228 2.228 0 006.7 3.924a3.985 3.985 0 00-1.115-.15 4.48 4.48 0 00-3.562 1.74C-.1 8.315-.273 12.401.247 16.202a19.738 19.738 0 003.003 7.431c.053.068.101.105.15.105a.124.124 0 00.081-.036 12.79 12.79 0 002.467-3.322c.452.364.215 1.135-.036 1.96a12.535 12.535 0 01-1.02 2.324c-.205.353-.476.763-.113.978a.267.267 0 00.141.034c.468 0 1.57-.816 2.798-2.453a18.892 18.892 0 002.069-3.477c.1.023.27.193.242.658a11.589 11.589 0 01-1.444 3.852 22.207 22.207 0 01-2.01 2.881c-.112.135-.02.219.053.273a23.72 23.72 0 004.203 2.95 19.138 19.138 0 004.187 1.823 18.836 18.836 0 004.183-1.815 22.729 22.729 0 004.202-2.965.167.167 0 00.056-.272 21.994 21.994 0 01-2.002-2.876 11.328 11.328 0 01-1.448-3.847c-.022-.468.137-.623.232-.662a18.847 18.847 0 002.08 3.477c1.232 1.639 2.324 2.452 2.795 2.452a.288.288 0 00.145-.034c.354-.214.091-.631-.118-.978a14.384 14.384 0 01-1.029-2.32c-.238-.834-.485-1.606-.024-1.96a12.577 12.577 0 002.463 3.313.123.123 0 00.09.043.194.194 0 00.14-.098 19.57 19.57 0 003.007-7.438c.52-3.808.349-7.886-1.777-10.69a4.48 4.48 0 00-3.575-1.746 3.969 3.969 0 00-1.097.15 2.214 2.214 0 00-1.776 1.917 1.454 1.454 0 00.971 1.49 1.805 1.805 0 01-1.482.827 5.038 5.038 0 01-.63.04 2.562 2.562 0 01-2.281-1.233c-.66-.92-.635-2.814-.677-3.446a4.223 4.223 0 00-.842-2.666 3.743 3.743 0 00-2.509-.843h-.204" fill="#00ade8"/><path d="M192.529 9.285a6.56 6.56 0 00-5.614-3.256c-2.105 0-3.956.862-3.956 3.095 0 1.88 2.331 3.158 4.754 4.721 2.647 1.655 5.39 3.698 5.39 7.242 0 4.625-4.498 7.463-9.7 7.463a19.136 19.136 0 01-6.889-1.371l.414-6.156a7.417 7.417 0 006.824 4.402c2.585 0 4.498-1.243 4.498-3.415 0-1.849-1.564-2.996-3.476-4.145-4.02-2.424-6.57-4.37-6.57-7.88 0-5.263 4.4-7.017 8.96-7.017 2.647 0 4.308.478 5.998.478l-.638 5.838m-22.295 5.518c-.577.957-1.307 2.263-1.755 3.222a35.46 35.46 0 00-.574 6.918c0 1.117.192 2.615.701 3.126h-6.665c1.18-1.116 1.66-7.971 1.597-10.144a52.578 52.578 0 00-3.957-9.665c-1.178-2.264-2.55-4.402-3.412-4.817 1.498-.126 3.412-.225 4.337-.225 1.659 0 2.105.225 3.128 2.457C165.22 9.28 166.4 11.99 167.103 14c1.693-2.65 2.872-4.466 4.402-6.954a4.127 4.127 0 00.701-2.106 2.547 2.547 0 00-.35-1.503h6.603c-1.278.287-7.018 9.315-8.229 11.354m-23.19-5.58l-3.954 8.579h6.442L147.04 9.21m7.752 19.072c-2.105 0-2.265-.062-3.957-5.865l-.602-2.137c-1.02.477-2.84.7-5.742.7h-2.933l-.511 1.086c-.735 1.628-1.723 3.539-1.723 4.882a3.885 3.885 0 00.16 1.116h-17.418c.99-1.116 1.308-4.72 1.787-11.26l.095-1.563c.255-3.733.452-6.602.417-8.611-.033-1.658-.193-2.71-.64-3.19h6.732c-.96.735-1.311 4.688-1.754 11.229l-.13 1.56c-.159 2.426-.478 4.913-.478 7.337 0 1.116.452 1.37 1.597 1.37 4.08 0 5.103-.095 6.952-1.339 1.148-2.105 2.457-4.754 3.731-7.497l1.73-3.667c1.625-3.445 3.218-6.955 3.218-7.624a3.471 3.471 0 00-.317-1.372h5.36s2.167 8.04 2.646 9.76l1.052 3.894c1.818 6.542 2.967 9.728 4.5 10.971a37.592 37.592 0 01-3.766.226m-43.408.256c-6.35 0-10.019-5.23-10.019-11.098 0-8.166 4.437-14.483 12.887-14.483 2.649 0 3.892.478 6.028.478l-.638 6.284a6.549 6.549 0 00-5.835-3.7c-5.263 0-7.4 5.679-7.4 10.558 0 5.294 2.966 8.196 6.917 8.196 2.138 0 4.019-.574 7.176-2.774-1.278 4.084-4.242 6.542-9.12 6.542M89.377 6.44a19.126 19.126 0 00-1.913.062c-.192 1.053-.353 2.872-.576 5.805l-.129 1.724a6.06 6.06 0 001.12.098c3.059 0 5.167-1.853 5.167-4.658 0-1.917-1.34-3.031-3.668-3.031m8.896 22.679c-1.817 0-2.264-.289-2.868-1.118l-6.892-9.57c-.542-.733-.955-1.34-1.817-1.34h-.16l-.127 1.85c-.16 2.52-.255 4.532-.255 6.03.031 1.658.225 2.678.67 3.094h-6.666c.956-.862 1.307-3.732 1.849-11.26l.097-1.563c.255-3.7.447-6.571.414-8.58-.033-1.754-.22-2.84-.702-3.223h9.09c2.966 0 7.05.512 7.05 5.329 0 3.953-2.649 6.123-5.933 7.143a15.867 15.867 0 011.243 1.469l5.007 6.635c3.128 4.114 3.384 4.305 4.499 4.88-1.404.16-3.285.226-4.5.226M67.21 9.219l-3.99 8.578h6.476l-2.486-8.578m7.745 19.071c-2.106 0-2.263-.062-3.953-5.865l-.607-2.137c-1.023.477-2.84.7-5.742.7H61.72l-.511 1.086c-.508 1.15-1.754 3.51-1.722 4.882a4.045 4.045 0 00.16 1.116h-5.9c1.69-1.69 3.827-5.613 6.793-11.961l1.723-3.667a58.498 58.498 0 003.222-7.625 3.415 3.415 0 00-.32-1.371h5.362s1.4 5.327 2.645 9.76l1.052 3.893c1.818 6.541 2.965 9.727 4.498 10.972-1.373.16-3.095.22-3.767.22M44.59 6.414a16.376 16.376 0 00-1.723.065c-.256 1.722-.415 3.384-.542 5.197 0 0-.095 1.563-.095 1.499h.637c3.127 0 5.998-1.083 5.998-3.952 0-1.662-1.373-2.809-4.276-2.809m-.797 9.76h-1.753l-.256 3.637a74.185 74.185 0 00-.226 4.529c0 .225.7.703 2.36.703 3.444 0 5.71-1.722 5.71-4.564 0-3.158-2.584-4.305-5.837-4.305m.382 11.898H35.56c1.085-.958 1.373-4.689 1.85-11.26l.096-1.53c.255-3.733.447-6.604.415-8.611-.033-1.723-.225-2.84-.703-3.223h9.633c2.297 0 6.891.128 6.891 4.912 0 3.19-2.968 5.168-5.678 5.87 3.828.384 6.699 2.232 6.699 6.188 0 4.273-4.02 7.654-10.59 7.654" fill="#00adee"/></svg>